<svg width="425" height="86" viewBox="0 0 425 86" fill="none" xmlns="http://www.w3.org/2000/svg">
<path d="M39.8242 14.4258C39.4466 14.2747 38.9935 14.0104 38.4648 13.6328C37.9362 13.2552 37.181 12.9154 36.1992 12.6133C35.2174 12.2357 33.9714 11.9336 32.4609 11.707C30.9505 11.4805 29.0247 11.4427 26.6836 11.5938V0.152344C30.0065 0.227865 33.3672 0.605469 36.7656 1.28516C40.2396 1.88932 43.0339 2.87109 45.1484 4.23047C44.6953 5.21224 44.1667 6.30729 43.5625 7.51562C42.9583 8.64844 42.3919 9.74349 41.8633 10.8008C41.3346 11.7826 40.8815 12.6133 40.5039 13.293C40.1263 13.9727 39.8997 14.3503 39.8242 14.4258ZM0.742188 23.4883C0.742188 20.1654 1.30859 17.1823 2.44141 14.5391C3.57422 11.8958 5.08464 9.59245 6.97266 7.62891C8.9362 5.58984 11.2018 4.00391 13.7695 2.87109C16.4128 1.66276 19.1693 0.869792 22.0391 0.492188V12.3867C19.6224 13.2174 17.6211 14.6901 16.0352 16.8047C14.4492 18.8438 13.6562 20.9206 13.6562 23.0352C13.6562 25.9805 14.4492 28.3594 16.0352 30.1719C17.6211 31.9844 19.6224 33.5703 22.0391 34.9297V47.8438C19.5469 46.6354 17.0547 45.3516 14.5625 43.9922C12.0703 42.5573 9.80469 40.8958 7.76562 39.0078C5.72656 37.1198 4.02734 34.9297 2.66797 32.4375C1.38411 29.9453 0.742188 26.9622 0.742188 23.4883ZM2.55469 69.707C3.61198 70.3112 4.93359 70.9154 6.51953 71.5195C8.18099 72.0482 9.88021 72.5768 11.6172 73.1055C13.3542 73.5586 15.0911 73.9362 16.8281 74.2383C18.5651 74.5404 20.1888 74.6914 21.6992 74.6914H22.0391V85.4531H21.8125C20 85.4531 18.112 85.3398 16.1484 85.1133C14.2604 84.9622 12.3346 84.6602 10.3711 84.207C8.40755 83.7539 6.51953 83.1497 4.70703 82.3945C2.97005 81.5638 1.45964 80.582 0.175781 79.4492L2.55469 69.707ZM26.6836 37.1953C29.1758 38.3281 31.7057 39.5365 34.2734 40.8203C36.9167 42.1042 39.2956 43.6901 41.4102 45.5781C43.5247 47.3906 45.2617 49.6185 46.6211 52.2617C47.9805 54.9049 48.6602 58.1901 48.6602 62.1172C48.6602 64.8359 48.1315 67.4792 47.0742 70.0469C46.0924 72.6146 44.6576 74.9557 42.7695 77.0703C40.957 79.1094 38.6914 80.8464 35.9727 82.2812C33.2539 83.7161 30.1576 84.6602 26.6836 85.1133V74.2383C32.8763 72.7279 35.9727 68.612 35.9727 61.8906C35.9727 59.2474 35.1042 57.0573 33.3672 55.3203C31.6302 53.5833 29.4023 51.9596 26.6836 50.4492V37.1953Z" fill="#A18A68"/>
<path d="M126.598 1.51172V85H113.004V47.3906H81.5117V38.1016H113.004V1.51172H126.598ZM63.0469 1.51172H76.8672V85H63.0469V1.51172ZM145.969 42.8594C145.969 36.138 146.762 30.2096 148.348 25.0742C150.009 19.8633 152.275 15.4831 155.145 11.9336C158.09 8.30859 161.526 5.55208 165.453 3.66406C169.456 1.70052 173.798 0.567708 178.48 0.265625V11.5938C175.913 11.8958 173.496 12.6888 171.23 13.9727C168.965 15.2565 167.001 17.1445 165.34 19.6367C163.678 22.1289 162.357 25.3008 161.375 29.1523C160.393 33.0039 159.865 37.5729 159.789 42.8594C159.865 48.2214 160.393 52.8281 161.375 56.6797C162.357 60.4557 163.678 63.6276 165.34 66.1953C167.077 68.763 169.078 70.7266 171.344 72.0859C173.609 73.3698 175.988 74.125 178.48 74.3516V85.5664C173.874 85.2643 169.569 84.1693 165.566 82.2812C161.564 80.3177 158.09 77.5612 155.145 74.0117C152.275 70.3867 150.009 65.9688 148.348 60.7578C146.762 55.5469 145.969 49.5807 145.969 42.8594ZM183.012 0.265625C187.618 0.492188 191.885 1.58724 195.812 3.55078C199.815 5.51432 203.251 8.30859 206.121 11.9336C209.066 15.4831 211.37 19.8633 213.031 25.0742C214.693 30.2096 215.523 36.138 215.523 42.8594C215.523 49.5807 214.693 55.5469 213.031 60.7578C211.37 65.9688 209.066 70.3867 206.121 74.0117C203.251 77.5612 199.853 80.3177 195.926 82.2812C191.999 84.1693 187.694 85.2643 183.012 85.5664V74.3516C185.579 74.0495 187.996 73.2565 190.262 71.9727C192.527 70.6133 194.491 68.6875 196.152 66.1953C197.814 63.6276 199.135 60.4557 200.117 56.6797C201.099 52.8281 201.628 48.2214 201.703 42.8594C201.628 37.4974 201.099 32.9284 200.117 29.1523C199.135 25.3008 197.776 22.1289 196.039 19.6367C194.378 17.069 192.414 15.1432 190.148 13.8594C187.883 12.5 185.504 11.707 183.012 11.4805V0.265625ZM234.555 1.51172H248.148V85H234.555V1.51172ZM258.57 1.51172C262.12 1.51172 265.632 2.07812 269.105 3.21094C272.579 4.34375 275.676 6.04297 278.395 8.30859C281.189 10.5742 283.417 13.3307 285.078 16.5781C286.815 19.75 287.684 23.3372 287.684 27.3398C287.684 31.569 286.966 35.4206 285.531 38.8945C284.096 42.293 282.095 45.1628 279.527 47.5039C276.96 49.8451 273.863 51.6576 270.238 52.9414C266.613 54.2253 262.611 54.8672 258.23 54.8672H252.793V44.8984H260.609C262.271 44.8984 263.895 44.6341 265.48 44.1055C267.142 43.5013 268.652 42.5573 270.012 41.2734C271.371 39.9896 272.466 38.2148 273.297 35.9492C274.128 33.6081 274.543 30.7383 274.543 27.3398C274.543 25.9805 274.354 24.4323 273.977 22.6953C273.599 20.8828 272.806 19.1836 271.598 17.5977C270.465 15.9362 268.841 14.5768 266.727 13.5195C264.612 12.3867 261.818 11.8203 258.344 11.8203H252.793V1.51172H258.57ZM303.09 1.51172H316.684V85H303.09V1.51172ZM327.105 1.51172C330.655 1.51172 334.167 2.07812 337.641 3.21094C341.115 4.34375 344.211 6.04297 346.93 8.30859C349.724 10.5742 351.952 13.3307 353.613 16.5781C355.35 19.75 356.219 23.3372 356.219 27.3398C356.219 31.569 355.501 35.4206 354.066 38.8945C352.632 42.293 350.63 45.1628 348.062 47.5039C345.495 49.8451 342.398 51.6576 338.773 52.9414C335.148 54.2253 331.146 54.8672 326.766 54.8672H321.328V44.8984H329.145C330.806 44.8984 332.43 44.6341 334.016 44.1055C335.677 43.5013 337.188 42.5573 338.547 41.2734C339.906 39.9896 341.001 38.2148 341.832 35.9492C342.663 33.6081 343.078 30.7383 343.078 27.3398C343.078 25.9805 342.889 24.4323 342.512 22.6953C342.134 20.8828 341.341 19.1836 340.133 17.5977C339 15.9362 337.376 14.5768 335.262 13.5195C333.147 12.3867 330.353 11.8203 326.879 11.8203H321.328V1.51172H327.105ZM372.078 1.51172H385.898V85H372.078V1.51172ZM420.789 47.3906H390.543V38.1016H420.789V47.3906ZM390.543 74.6914H424.301V85H390.543V74.6914ZM424.301 1.51172V11.8203H390.543V1.51172H424.301Z" fill="black"/>
</svg>
